<?xml version="1.0" standalone="no"?><!DOCTYPE svg PUBLIC "-//W3C//DTD SVG 1.1//EN" "http://www.w3.org/Graphics/SVG/1.1/DTD/svg11.dtd"><svg t="1506935891805" class="icon" style="" viewBox="0 0 1024 1024" version="1.1" xmlns="http://www.w3.org/2000/svg" p-id="2373" xmlns:xlink="http://www.w3.org/1999/xlink" width="200" height="200"><defs><style type="text/css"></style></defs><path d="M974.627597 1002.43708C972.336281 1004.564731 969.390304 1005.710389 966.116995 1005.710389 962.680021 1005.710389 959.897709 1004.564731 957.606393 1002.273415 955.315077 999.982099 954.1626 997.199787 954.1626 993.926478 954.1626 990.489505 955.315077 987.707192 957.606393 985.579542 959.897709 983.288226 962.680021 982.306233 966.116995 982.306233 969.553969 982.306233 972.499947 983.288226 974.791263 985.579542 977.082579 987.707192 978.228237 990.489505 978.228237 993.926478 978.228237 997.363452 976.918913 1000.145765 974.627597 1002.43708ZM921.6 1005.710389C918.163026 1005.710389 915.380714 1004.564731 913.089398 1002.273415 910.798082 999.982099 909.645605 997.199787 909.645605 993.926478 909.645605 990.489505 910.798082 987.707192 913.089398 985.579542 915.380714 983.288226 918.163026 982.306233 921.6 982.306233 925.036974 982.306233 927.982952 983.288226 930.274267 985.579542 932.565583 987.707192 933.711241 990.489505 933.711241 993.926478 933.711241 997.363452 932.401918 1000.145765 930.110602 1002.43708 927.819286 1004.564731 924.873308 1005.710389 921.6 1005.710389ZM877.083005 1005.710389C873.646031 1005.710389 870.863719 1004.564731 868.572403 1002.273415 866.281087 999.982099 865.128609 997.199787 865.128609 993.926478 865.128609 990.489505 866.281087 987.707192 868.572403 985.579542 870.863719 983.288226 873.646031 982.306233 877.083005 982.306233 880.519979 982.306233 883.465956 983.288226 885.757272 985.579542 888.048588 987.707192 889.194246 990.489505 889.194246 993.926478 889.194246 997.363452 887.884923 1000.145765 885.593607 1002.43708 883.302291 1004.564731 880.356313 1005.710389 877.083005 1005.710389ZM516.26212 661.481087C333.597869 661.481087 185.521577 513.404795 185.521577 330.740543 185.521577 148.076292 333.597869 0 516.26212 0 698.926372 0 847.002664 148.076292 847.002664 330.740543 847.002664 513.404795 698.926372 661.481087 516.26212 661.481087ZM516.26212 40.916356C356.197336 40.916356 226.437933 170.675759 226.437933 330.740543 226.437933 490.805328 356.197336 620.564731 516.26212 620.564731 676.326905 620.564731 806.086308 490.805328 806.086308 330.740543 806.086308 170.675759 676.326905 40.916356 516.26212 40.916356ZM519.671817 531.912627C442.401279 532.042195 393.465317 471.070005 386.986894 461.81609 380.501652 452.562174 382.752051 439.80309 392.005967 433.324667 401.259883 426.839425 414.018966 429.089824 420.497389 438.34374 426.982632 447.597656 468.846883 491.350879 519.671817 490.996271 567.571231 490.66212 612.361002 447.597656 618.846244 438.34374 625.324667 429.089824 638.083751 426.839425 647.337666 433.324667 656.591582 439.80309 658.841982 452.562174 652.356739 461.81609 645.878316 471.070005 596.608205 531.783058 519.671817 531.912627ZM628.782099 272.775706C617.482365 272.775706 608.323921 263.617262 608.323921 252.317528L608.323921 231.85935C608.323921 220.559616 617.482365 211.401172 628.782099 211.401172 640.081833 211.401172 649.240277 220.559616 649.240277 231.85935L649.240277 252.317528C649.240277 263.617262 640.081833 272.775706 628.782099 272.775706ZM403.742142 272.775706C392.442408 272.775706 383.283964 263.617262 383.283964 252.317528L383.283964 231.85935C383.283964 220.559616 392.442408 211.401172 403.742142 211.401172 415.041875 211.401172 424.20032 220.559616 424.20032 231.85935L424.20032 252.317528C424.20032 263.617262 415.041875 272.775706 403.742142 272.775706ZM191.986361 939.255408 184.948748 952.184976C172.673841 947.929675 162.36292 942.692381 154.015983 936.636761 146.160043 942.201385 137.32211 946.784017 127.338519 950.711987L120.457752 937.946084C128.975173 935.000107 136.503783 931.563133 143.0504 927.307832 134.212467 918.306233 128.156846 907.995312 125.040384 896.538732L120.457752 896.538732 120.457752 882.627171 183.148428 882.627171 183.148428 895.720405C179.384124 907.831646 173.328503 918.142568 165.145232 926.816835 172.510176 931.399467 181.511774 935.491103 191.986361 939.255408ZM167.927544 896.538732 138.795099 896.538732C140.759084 904.722003 145.832712 912.086947 153.688652 918.79723 160.071604 912.250613 164.817901 904.722003 167.927544 896.538732ZM107.200852 949.566329C101.963559 945.802025 95.744273 941.874054 88.379329 937.946084 78.886734 945.147363 66.939158 951.039318 52.863932 955.62195L45.819499 943.019712C56.955567 939.746404 66.448162 935.491103 74.304102 930.58114 68.084816 927.471497 61.701865 924.361854 54.827917 921.252211 58.428556 913.723601 61.701865 906.522323 64.647842 899.648375L48.117635 899.648375 48.117635 885.573149 70.048801 885.573149C71.685456 880.492701 73.32211 875.582738 74.631433 871.000107L89.852318 872.800426C88.542994 877.219393 87.070005 881.481513 85.760682 885.573149L114.238466 885.573149 114.238466 898.666383C111.456153 909.795631 106.382525 919.615557 99.017581 927.962493 104.745871 930.908471 110.310495 934.181779 115.711454 937.455088L107.200852 949.566329ZM99.999574 899.648375 80.032392 899.648375C77.577411 905.212999 74.958764 910.450293 72.176452 915.523921 76.759084 917.324241 81.341716 919.288226 85.760682 921.415876 92.143633 914.869259 96.889931 907.667981 99.999574 899.648375ZM103.272882 977.723601 55.482579 977.723601 55.482579 963.975706 107.855514 963.975706C108.510176 959.713586 109.001172 955.294619 109.164838 950.711987L124.713053 950.711987C124.713053 955.294619 124.385722 959.713586 123.73106 963.975706L180.529782 963.975706C180.202451 991.144166 177.747469 1007.347043 172.837507 1012.584337 168.091209 1017.82163 159.907938 1020.603942 148.124028 1020.603942 142.232072 1020.603942 135.358125 1020.276612 127.174853 1019.949281L123.240064 1006.201385 144.687054 1007.019712C153.197656 1006.856047 158.598615 1005.219393 160.889931 1002.273415 162.853916 999.163772 164.163239 990.980501 164.654235 977.723601L120.294086 977.723601C118.821097 981.978903 117.020778 985.743207 114.893127 989.343847 106.873522 1002.764411 87.888332 1014.057326 57.93756 1022.895258L47.619819 1010.456686C73.813106 1003.255408 90.997975 994.58114 99.181247 984.433884 100.817901 982.306233 102.127224 980.014917 103.272882 977.723601ZM254.008737 964.303037C259.246031 951.039318 262.84667 935.163772 264.810655 916.505914L218.657006 916.505914 218.657006 901.61236 265.956313 901.61236 266.44731 888.846457 266.44731 871.982099 282.486521 871.982099 282.486521 888.846457 281.995525 901.61236 344.195205 901.61236C343.540543 930.744806 342.558551 954.476292 340.921897 972.649973 339.285242 990.489505 336.339265 1002.928077 332.411295 1010.129355 328.483324 1017.003303 322.264038 1020.767608 313.753436 1021.42227L290.840277 1021.42227 286.578157 1006.365051C293.458924 1006.692381 300.005541 1006.856047 306.224827 1006.856047 314.571763 1006.856047 320.136388 1001.291422 322.755035 990.325839 325.537347 978.869259 327.337666 954.148961 328.155994 916.505914L280.849867 916.505914C278.23122 940.2374 273.321257 960.047736 266.119979 976.086947 256.300053 996.054129 240.424507 1011.602344 218.49334 1022.731593L209.975919 1009.147363C231.586574 997.363452 246.152797 982.469899 254.008737 964.303037ZM397.215983 914.705594 372.495685 914.705594 372.495685 899.48471 397.215983 899.48471 397.215983 871.982099 412.927864 871.982099 412.927864 899.48471 445.824614 899.48471C445.824614 955.130954 445.006287 989.507512 443.369632 1002.600746 441.732978 1015.039318 433.549707 1021.258604 418.983484 1021.258604 416.364838 1021.258604 412.109536 1020.931273 406.217581 1020.440277L402.289611 1006.201385C407.854235 1006.692381 412.600533 1007.019712 416.528503 1007.019712 423.402451 1007.019712 427.494086 1003.091742 428.80341 995.563133 429.785402 987.543527 430.276399 960.538732 430.603729 914.705594L412.927864 914.705594 412.927864 919.12456C412.436867 966.921684 401.96228 1001.782419 381.340437 1023.877251L368.73138 1012.748002C387.396058 993.435482 396.888652 962.175386 397.215983 919.12456L397.215983 914.705594ZM513.916249 1020.112946 498.695365 1020.112946 498.695365 1009.96569 473.49089 1009.96569 473.49089 1020.112946 458.270005 1020.112946 458.270005 890.155781 513.916249 890.155781 513.916249 1020.112946ZM498.695365 905.212999 473.49089 905.212999 473.49089 994.908471 498.695365 994.908471 498.695365 905.212999ZM657.450826 872.473095C665.634097 881.645178 672.017048 889.664784 676.436015 896.538732L664.81577 904.722003C660.233138 897.357059 653.850186 889.173788 645.666915 880.001705L657.450826 872.473095ZM575.938625 897.520725 545.333191 897.520725 545.333191 883.445498 575.938625 883.445498 575.938625 871.000107 590.995844 871.000107 590.995844 883.445498 619.316782 883.445498 619.316782 897.520725 590.995844 897.520725 590.995844 909.304635 626.681726 909.304635C626.027064 897.520725 625.699734 884.591156 625.699734 870.836441L640.756953 870.836441C640.756953 885.082152 641.084283 897.848055 641.738945 909.304635L681.673308 909.304635 681.673308 923.543527 642.557272 923.543527C643.539265 937.127757 644.848588 948.09334 646.485242 956.603942 647.139904 959.54992 647.6309 962.502717 648.285562 965.285029 653.031859 954.476292 656.95983 942.528716 660.069473 929.271817L673.981034 935.491103C668.907405 955.458284 662.360788 972.322643 654.341183 986.070538 655.323175 988.689185 656.468833 991.144166 657.614491 993.271817 661.542461 1000.800426 664.488439 1004.728396 666.61609 1004.728396 668.252744 1004.728396 670.053063 996.708791 671.853383 980.833245L685.110282 987.870858C681.345978 1009.638359 675.781353 1020.603942 668.416409 1020.603942 662.524454 1020.603942 656.305168 1015.69398 649.43122 1005.874054 647.958231 1003.746404 646.648908 1001.455088 645.50325 999.163772 637.319979 1009.311028 628.154715 1017.003303 618.007459 1022.567928L609.653703 1010.129355C621.117102 1003.910069 630.773362 994.744806 638.792968 982.633564 636.501652 975.759616 634.374001 968.231007 632.737347 960.047736 630.446031 949.89366 628.645711 937.618753 627.663719 923.543527L536.81577 923.543527 536.81577 909.304635 575.938625 909.304635 575.938625 897.520725ZM567.428023 924.85285 582.157912 927.635162C581.175919 930.58114 580.193926 933.199787 579.211934 935.818434L620.135109 935.818434 620.135109 949.566329 573.483644 949.566329C570.537666 955.785615 567.264358 961.357059 563.99105 966.430687L579.866596 966.430687 579.866596 955.62195 595.08748 955.62195 595.08748 966.430687 618.498455 966.430687 618.498455 979.360256 595.08748 979.360256 595.08748 989.834843C603.598082 989.016516 611.617688 988.198189 619.316782 987.216196L619.316782 1000.636761C611.454022 1001.618753 603.434417 1002.600746 595.08748 1003.582738L595.08748 1022.076931 579.866596 1022.076931 579.866596 1005.219393C568.573681 1006.201385 556.789771 1007.183378 544.514864 1008.16537L542.714544 993.762813C555.807778 993.108151 568.082685 992.289824 579.866596 991.307832L579.866596 979.360256 549.588492 979.360256 546.642515 966.921684C550.570485 962.175386 554.171124 956.440277 557.608098 949.566329L541.732552 949.566329 541.732552 935.818434 563.663719 935.818434C564.973042 932.217794 566.1187 928.617155 567.428023 924.85285ZM764.97219 870.836441 781.011401 870.836441 781.011401 899.157379 839.283111 899.157379 839.283111 978.214598 823.734896 978.214598 823.734896 968.885669 781.011401 968.885669 781.011401 1023.713586 764.97219 1023.713586 764.97219 968.885669 722.41918 968.885669 722.41918 978.214598 706.870964 978.214598 706.870964 899.157379 764.97219 899.157379 764.97219 870.836441ZM781.011401 953.657965 823.734896 953.657965 823.734896 914.378263 781.011401 914.378263 781.011401 953.657965ZM722.41918 914.378263 722.41918 953.657965 764.97219 953.657965 764.97219 914.378263 722.41918 914.378263Z" p-id="2374"></path></svg>