<?xml version="1.0" standalone="no"?><!DOCTYPE svg PUBLIC "-//W3C//DTD SVG 1.1//EN" "http://www.w3.org/Graphics/SVG/1.1/DTD/svg11.dtd"><svg t="1506927773816" class="icon" style="" viewBox="0 0 1025 1024" version="1.1" xmlns="http://www.w3.org/2000/svg" p-id="3359" xmlns:xlink="http://www.w3.org/1999/xlink" width="200" height="200"><defs><style type="text/css"></style></defs><path d="M1021.923737 450.547539c-3.949605-59.390357-13.750477-117.46418-33.937347-173.636341-22.381095-62.315991-56.318442-117.317898-105.907928-161.933807-40.373741-36.424135-87.037593-62.169709-138.089895-80.162354C699.665221 19.162899 653.879058 9.800872 607.068924 5.119858c-19.748025-1.901662-39.496051-2.925633-59.244076-4.242168-1.901662-0.146282-3.657042-0.438845-5.558703-0.731408l-60.414329 0c-10.093435 0.731408-20.040589 1.316535-30.134024 2.047943-52.076274 3.364478-103.42114 11.263688-153.44947 26.769545-51.783711 16.090984-99.764098 39.642332-142.185782 74.018524-57.049851 46.225007-95.375648 105.322801-120.09725 173.928904C19.748025 321.819671 10.239717 368.483523 5.119858 416.171347 0 463.127763-1.170253 510.23046 1.170253 557.333157c3.51076 71.092891 14.628167 140.722965 41.543994 207.281124 44.762191 110.588941 124.339418 184.461184 236.244895 224.103516 47.541542 16.822392 96.692183 26.3307 146.866795 31.157995 54.416781 5.26614 108.833561 5.412422 163.250342 0.87769 69.044948-5.851267 136.041952-19.894307 199.089351-49.589486 99.178971-46.810134 164.566877-123.754292 200.991013-226.444023 15.652139-44.323346 25.160447-89.963226 29.84146-136.627078 1.901662-19.455462 2.925633-39.203487 4.38845-58.658949 0.146282-1.609098 0.585127-3.364478 0.87769-4.973577l0-63.486244C1023.240272 470.588128 1022.655145 460.640974 1021.923737 450.547539zM713.708261 537.292569c-22.673659 37.886952-47.102697 74.603651-71.092891 111.759195-37.886952 58.805231-76.066468 117.46418-114.099701 176.269411-11.556252 17.846364-21.210842 17.846364-32.913375-0.292563-59.536639-92.01117-120.09725-183.290931-178.609917-275.887227-93.181423-147.890767-5.119858-328.548628 153.888315-357.219835 13.750477-2.486788 27.647235-3.218197 41.543994-4.681013 114.245983 1.316535 211.523293 83.965678 229.66222 196.602563C750.571241 438.113597 741.940623 489.897308 713.708261 537.292569zM634.423597 429.336697c-4.242168 64.363934-57.927541 114.538546-122.584038 114.392265-63.339962-0.146282-116.732772-48.858077-121.998912-111.32035-5.412422-64.071371 38.472079-121.998912 101.226915-132.092347 45.347317-7.314083 83.673114 7.167802 114.392265 41.397712 6.875238 7.606647 5.851267 19.016617-1.75538 25.745574-7.89921 6.875238-19.162899 6.14383-26.623264-2.194225-12.433942-13.896759-27.500954-23.405067-45.786162-27.647235-46.663852-11.117407-93.912831 19.162899-103.42114 66.411878-9.65459 47.395261 22.088532 93.912831 69.630074 101.812041 49.882049 8.191773 95.52193-27.062109 99.91038-77.383003 0.731408-8.191773 3.949605-14.774449 11.995097-17.992645 6.728957-2.63307 13.16535-1.609098 18.724054 3.218197C633.107061 417.487882 634.862442 422.900304 634.423597 429.336697z" p-id="3360" fill="#1296db"></path></svg>