<?xml version="1.0" standalone="no"?><!DOCTYPE svg PUBLIC "-//W3C//DTD SVG 1.1//EN" "http://www.w3.org/Graphics/SVG/1.1/DTD/svg11.dtd"><svg t="1506933183440" class="icon" style="" viewBox="0 0 1024 1024" version="1.1" xmlns="http://www.w3.org/2000/svg" p-id="36282" xmlns:xlink="http://www.w3.org/1999/xlink" width="200" height="200"><defs><style type="text/css"></style></defs><path d="M512 512m-446.759 0a446.759 446.759 0 1 0 893.518 0 446.759 446.759 0 1 0-893.518 0Z" fill="#1296db" p-id="36283"></path><path d="M512.407 223.347c-124.065 0-225.015 100.95-225.015 225.015 0 119.769 201.634 332.429 210.205 341.409a20.406 20.406 0 0 0 14.81 6.341h0.45c5.748 0 11.169-2.68 14.954-6.996l69.816-79.982c92.767-113.633 139.795-201.368 139.795-260.772 0-124.065-100.95-225.015-225.015-225.015z m0 327.294c-56.499 0-102.279-45.78-102.279-102.279s45.78-102.279 102.279-102.279 102.279 45.78 102.279 102.279-45.78 102.279-102.279 102.279z" fill="#FFFFFF" p-id="36284"></path></svg>