<?xml version="1.0" standalone="no"?><!DOCTYPE svg PUBLIC "-//W3C//DTD SVG 1.1//EN" "http://www.w3.org/Graphics/SVG/1.1/DTD/svg11.dtd"><svg t="1506932837626" class="icon" style="" viewBox="0 0 1024 1024" version="1.1" xmlns="http://www.w3.org/2000/svg" p-id="21589" xmlns:xlink="http://www.w3.org/1999/xlink" width="200" height="200"><defs><style type="text/css"></style></defs><path d="M967.111111 512c0 251.392-203.719111 455.111111-455.111111 455.111111s-455.111111-203.719111-455.111111-455.111111c0-251.335111 203.719111-455.111111 455.111111-455.111111s455.111111 203.776 455.111111 455.111111" fill="#1296db" p-id="21590"></path><path d="M783.416889 721.692444l-128.398222-129.422222c-1.479111-1.479111-3.185778-2.673778-4.721778-3.868444a213.902222 213.902222 0 0 0 34.360889-116.565334c0-118.215111-95.061333-214.129778-212.423111-214.129777-117.304889 0-212.366222 95.914667-212.366223 214.129777 0 118.328889 95.118222 214.129778 212.366223 214.129778 42.723556 0 82.432-12.856889 115.712-34.645333 1.251556 1.592889 2.332444 3.242667 3.811555 4.721778l128.398222 129.422222a44.487111 44.487111 0 0 0 63.260445 0.056889 45.624889 45.624889 0 0 0 0-63.829334M472.177778 618.268444c-80.099556 0-145.294222-65.763556-145.294222-146.545777 0-80.725333 65.194667-146.488889 145.294222-146.488889 80.156444 0 145.294222 65.763556 145.294222 146.488889 0 80.782222-65.137778 146.545778-145.294222 146.545777" fill="#FFFFFF" p-id="21591"></path></svg>